<svg width="294" height="354" viewBox="0 0 294 354" fill="none" xmlns="http://www.w3.org/2000/svg">
<rect x="0.5" width="293" height="354" rx="5" fill="#DEDEDE"/>
<path d="M147 128.5C166.8 128.5 183 144.7 183 164.5C183 184.3 166.8 200.5 147 200.5C127.2 200.5 111 184.3 111 164.5C111 144.7 127.2 128.5 147 128.5ZM147 122.5C123.9 122.5 105 141.4 105 164.5C105 187.6 123.9 206.5 147 206.5C170.1 206.5 189 187.6 189 164.5C189 141.4 170.1 122.5 147 122.5Z" fill="#FF5A11"/>
<path d="M171 161.5H150V140.5H144V161.5H123V167.5H144V188.5H150V167.5H171V161.5Z" fill="#FF5A11"/>
<path d="M114.872 234.62C113.992 234.62 113.236 234.444 112.604 234.092C111.98 233.732 111.5 233.228 111.164 232.58C110.828 231.924 110.66 231.152 110.66 230.264C110.66 229.376 110.828 228.608 111.164 227.96C111.5 227.312 111.98 226.812 112.604 226.46C113.236 226.1 113.992 225.92 114.872 225.92C115.464 225.92 115.996 226.004 116.468 226.172C116.948 226.34 117.36 226.588 117.704 226.916L117.2 228.14C116.824 227.836 116.46 227.62 116.108 227.492C115.764 227.356 115.368 227.288 114.92 227.288C114.064 227.288 113.408 227.548 112.952 228.068C112.504 228.58 112.28 229.312 112.28 230.264C112.28 231.216 112.504 231.952 112.952 232.472C113.408 232.992 114.064 233.252 114.92 233.252C115.368 233.252 115.764 233.188 116.108 233.06C116.46 232.924 116.824 232.7 117.2 232.388L117.704 233.612C117.36 233.932 116.948 234.18 116.468 234.356C115.996 234.532 115.464 234.62 114.872 234.62ZM119.019 234.5V229.988C119.019 229.732 119.011 229.472 118.995 229.208C118.987 228.944 118.967 228.688 118.935 228.44H120.387L120.555 230.096H120.315C120.395 229.696 120.527 229.364 120.711 229.1C120.903 228.836 121.135 228.64 121.407 228.512C121.679 228.384 121.975 228.32 122.295 228.32C122.439 228.32 122.555 228.328 122.643 228.344C122.731 228.352 122.819 228.372 122.907 228.404L122.895 229.724C122.743 229.66 122.611 229.62 122.499 229.604C122.395 229.588 122.263 229.58 122.103 229.58C121.759 229.58 121.467 229.652 121.227 229.796C120.995 229.94 120.819 230.14 120.699 230.396C120.587 230.652 120.531 230.944 120.531 231.272V234.5H119.019ZM123.742 234.5V228.44H125.242V234.5H123.742ZM123.658 227.3V225.836H125.326V227.3H123.658ZM129.799 234.62C128.783 234.62 127.987 234.34 127.411 233.78C126.835 233.22 126.547 232.452 126.547 231.476C126.547 230.844 126.671 230.292 126.919 229.82C127.167 229.348 127.511 228.98 127.951 228.716C128.399 228.452 128.919 228.32 129.511 228.32C130.095 228.32 130.583 228.444 130.975 228.692C131.367 228.94 131.663 229.288 131.863 229.736C132.071 230.184 132.175 230.708 132.175 231.308V231.704H127.759V230.912H131.107L130.903 231.08C130.903 230.52 130.783 230.092 130.543 229.796C130.311 229.5 129.971 229.352 129.523 229.352C129.027 229.352 128.643 229.528 128.371 229.88C128.107 230.232 127.975 230.724 127.975 231.356V231.512C127.975 232.168 128.135 232.66 128.455 232.988C128.783 233.308 129.243 233.468 129.835 233.468C130.179 233.468 130.499 233.424 130.795 233.336C131.099 233.24 131.387 233.088 131.659 232.88L132.103 233.888C131.815 234.12 131.471 234.3 131.071 234.428C130.671 234.556 130.247 234.62 129.799 234.62ZM138.898 234.62C138.378 234.62 137.898 234.56 137.458 234.44C137.026 234.312 136.662 234.136 136.366 233.912L136.786 232.904C137.09 233.112 137.426 233.272 137.794 233.384C138.162 233.496 138.534 233.552 138.91 233.552C139.31 233.552 139.606 233.484 139.798 233.348C139.998 233.212 140.098 233.028 140.098 232.796C140.098 232.612 140.034 232.468 139.906 232.364C139.786 232.252 139.59 232.168 139.318 232.112L138.118 231.884C137.606 231.772 137.214 231.58 136.942 231.308C136.678 231.036 136.546 230.68 136.546 230.24C136.546 229.864 136.646 229.532 136.846 229.244C137.054 228.956 137.346 228.732 137.722 228.572C138.106 228.404 138.554 228.32 139.066 228.32C139.514 228.32 139.934 228.38 140.326 228.5C140.726 228.62 141.062 228.8 141.334 229.04L140.902 230.012C140.654 229.812 140.37 229.656 140.05 229.544C139.73 229.432 139.418 229.376 139.114 229.376C138.698 229.376 138.394 229.452 138.202 229.604C138.01 229.748 137.914 229.936 137.914 230.168C137.914 230.344 137.97 230.492 138.082 230.612C138.202 230.724 138.386 230.808 138.634 230.864L139.834 231.092C140.37 231.196 140.774 231.38 141.046 231.644C141.326 231.9 141.466 232.252 141.466 232.7C141.466 233.1 141.358 233.444 141.142 233.732C140.926 234.02 140.626 234.24 140.242 234.392C139.858 234.544 139.41 234.62 138.898 234.62ZM145.678 234.62C144.662 234.62 143.866 234.34 143.29 233.78C142.714 233.22 142.426 232.452 142.426 231.476C142.426 230.844 142.55 230.292 142.798 229.82C143.046 229.348 143.39 228.98 143.83 228.716C144.278 228.452 144.798 228.32 145.39 228.32C145.974 228.32 146.462 228.444 146.854 228.692C147.246 228.94 147.542 229.288 147.742 229.736C147.95 230.184 148.054 230.708 148.054 231.308V231.704H143.638V230.912H146.986L146.782 231.08C146.782 230.52 146.662 230.092 146.422 229.796C146.19 229.5 145.85 229.352 145.402 229.352C144.906 229.352 144.522 229.528 144.25 229.88C143.986 230.232 143.854 230.724 143.854 231.356V231.512C143.854 232.168 144.014 232.66 144.334 232.988C144.662 233.308 145.122 233.468 145.714 233.468C146.058 233.468 146.378 233.424 146.674 233.336C146.978 233.24 147.266 233.088 147.538 232.88L147.982 233.888C147.694 234.12 147.35 234.3 146.95 234.428C146.55 234.556 146.126 234.62 145.678 234.62ZM151.508 234.62C150.764 234.62 150.208 234.416 149.84 234.008C149.472 233.6 149.288 232.976 149.288 232.136V228.44H150.788V232.124C150.788 232.572 150.88 232.904 151.064 233.12C151.248 233.328 151.528 233.432 151.904 233.432C152.328 233.432 152.672 233.288 152.936 233C153.208 232.712 153.344 232.332 153.344 231.86V228.44H154.844V234.5H153.38V233.264H153.548C153.372 233.696 153.104 234.032 152.744 234.272C152.392 234.504 151.98 234.62 151.508 234.62ZM159.765 234.5V228.44H161.265V234.5H159.765ZM159.681 227.3V225.836H161.349V227.3H159.681ZM165.486 234.62C164.766 234.62 164.222 234.432 163.854 234.056C163.486 233.68 163.302 233.116 163.302 232.364V229.568H162.138V228.44H163.302V226.892L164.802 226.508V228.44H166.422V229.568H164.802V232.268C164.802 232.684 164.882 232.976 165.042 233.144C165.202 233.312 165.422 233.396 165.702 233.396C165.854 233.396 165.982 233.384 166.086 233.36C166.198 233.336 166.306 233.304 166.41 233.264V234.452C166.274 234.508 166.122 234.548 165.954 234.572C165.794 234.604 165.638 234.62 165.486 234.62ZM170.31 234.62C169.294 234.62 168.498 234.34 167.922 233.78C167.346 233.22 167.058 232.452 167.058 231.476C167.058 230.844 167.182 230.292 167.43 229.82C167.678 229.348 168.022 228.98 168.462 228.716C168.91 228.452 169.43 228.32 170.022 228.32C170.606 228.32 171.094 228.444 171.486 228.692C171.878 228.94 172.174 229.288 172.374 229.736C172.582 230.184 172.686 230.708 172.686 231.308V231.704H168.27V230.912H171.618L171.414 231.08C171.414 230.52 171.294 230.092 171.054 229.796C170.822 229.5 170.482 229.352 170.034 229.352C169.538 229.352 169.154 229.528 168.882 229.88C168.618 230.232 168.486 230.724 168.486 231.356V231.512C168.486 232.168 168.646 232.66 168.966 232.988C169.294 233.308 169.754 233.468 170.346 233.468C170.69 233.468 171.01 233.424 171.306 233.336C171.61 233.24 171.898 233.088 172.17 232.88L172.614 233.888C172.326 234.12 171.982 234.3 171.582 234.428C171.182 234.556 170.758 234.62 170.31 234.62ZM173.957 234.5V229.952C173.957 229.704 173.949 229.452 173.933 229.196C173.917 228.94 173.893 228.688 173.861 228.44H175.313L175.433 229.64H175.289C175.457 229.224 175.713 228.9 176.057 228.668C176.409 228.436 176.825 228.32 177.305 228.32C177.785 228.32 178.181 228.436 178.493 228.668C178.813 228.892 179.037 229.244 179.165 229.724H178.973C179.141 229.292 179.417 228.952 179.801 228.704C180.185 228.448 180.625 228.32 181.121 228.32C181.801 228.32 182.309 228.52 182.645 228.92C182.981 229.32 183.149 229.944 183.149 230.792V234.5H181.649V230.852C181.649 230.372 181.569 230.028 181.409 229.82C181.249 229.604 180.993 229.496 180.641 229.496C180.225 229.496 179.897 229.644 179.657 229.94C179.417 230.228 179.297 230.62 179.297 231.116V234.5H177.797V230.852C177.797 230.372 177.717 230.028 177.557 229.82C177.397 229.604 177.141 229.496 176.789 229.496C176.373 229.496 176.045 229.644 175.805 229.94C175.573 230.228 175.457 230.62 175.457 231.116V234.5H173.957Z" fill="#FF5A11"/>
</svg>
